# xmcd CD database file
#
# Track frame offsets:
#	150
#	12045
#	36410
#	47797
#	61353
#	72599
#	88592
#	111844
#	123521
#	139242
#	153129
#	166023
#	177369
#	191511
#	211725
#	221406
#	232251
#	245417
#	257516
#	280143
#
# Disc length: 3900 seconds
#
# Revision: 0
# Processed by: cddbd v1.5.1PL0 Copyright (c) Steve Scherf et al.
# Submitted via: CDex 1.51
#
DISCID=1e0f3a14
DTITLE=Various Artist - Compilation
DYEAR=1900
DGENRE=Jazz
TTITLE0=Astrud Gilberto - So Nice
TTITLE1=Billy Holiday - As Time Goes By
TTITLE2=Buena Vista Social Club - Quizas Quizas Quizas
TTITLE3=Charles Aznavour and Piaf - Dalida and Besame Mucho
TTITLE4=Dean Martin - Besame Mucho
TTITLE5=Diana Krall - Summer samba
TTITLE6=Diana Krall - Autumn Leaves
TTITLE7=Doris Day - Fly Me To The Moon
TTITLE8=Edith Piaf - Autumn Leaves
TTITLE9=Frank Sinatra - A Day in The Life of A Fool
TTITLE10=Frank Sinatra - Autumn Leaves
TTITLE11=Frank Sinatra - Fly Me To The Moon
TTITLE12=Jimmy Dorsey - Maria Elena
TTITLE13=George Benson - Blue Bossa
TTITLE14=Nat King Cole - My Funny Valentine
TTITLE15=Nat King Cole - Perfidia
TTITLE16=Nat King Cole - Smile
TTITLE17=Nat King Cole - Maria Elena
TTITLE18=Pat Martino - Blue Bossa
TTITLE19=Nat King Cole - Quizas Quizas Quizas
EXTD=
EXTT0=
EXTT1=
EXTT2=
EXTT3=
EXTT4=
EXTT5=
EXTT6=
EXTT7=
EXTT8=
EXTT9=
EXTT10=
EXTT11=
EXTT12=
EXTT13=
EXTT14=
EXTT15=
EXTT16=
EXTT17=
EXTT18=
EXTT19=
PLAYORDER=
